<svg width="146" height="26" viewBox="0 0 146 26" fill="none" xmlns="http://www.w3.org/2000/svg">
<path d="M15.3 12.672C16.764 12.984 17.94 13.716 18.828 14.868C19.716 15.996 20.16 17.292 20.16 18.756C20.16 20.868 19.416 22.548 17.928 23.796C16.464 25.02 14.412 25.632 11.772 25.632H5.46873e-06V0.360018H11.376C13.944 0.360018 15.948 0.948018 17.388 2.12402C18.852 3.30002 19.584 4.89602 19.584 6.91202C19.584 8.40002 19.188 9.63602 18.396 10.62C17.628 11.604 16.596 12.288 15.3 12.672ZM6.15601 10.584H10.188C11.196 10.584 11.964 10.368 12.492 9.93602C13.044 9.48002 13.32 8.82002 13.32 7.95602C13.32 7.09202 13.044 6.43202 12.492 5.97602C11.964 5.52002 11.196 5.29202 10.188 5.29202H6.15601V10.584ZM10.692 20.664C11.724 20.664 12.516 20.436 13.068 19.98C13.644 19.5 13.932 18.816 13.932 17.928C13.932 17.04 13.632 16.344 13.032 15.84C12.456 15.336 11.652 15.084 10.62 15.084H6.15601V20.664H10.692ZM29.8865 5.29202V10.404H38.1305V15.156H29.8865V20.7H39.2105V25.632H23.7305V0.360018H39.2105V5.29202H29.8865ZM64.879 0.360018L56.131 17.28V25.632H49.975V17.28L41.227 0.360018H48.211L53.107 10.944L57.967 0.360018H64.879ZM79.3114 25.884C76.9354 25.884 74.7514 25.332 72.7594 24.228C70.7914 23.124 69.2194 21.588 68.0434 19.62C66.8914 17.628 66.3154 15.396 66.3154 12.924C66.3154 10.452 66.8914 8.23202 68.0434 6.26402C69.2194 4.29602 70.7914 2.76002 72.7594 1.65602C74.7514 0.552019 76.9354 1.85966e-05 79.3114 1.85966e-05C81.6874 1.85966e-05 83.8594 0.552019 85.8274 1.65602C87.8194 2.76002 89.3794 4.29602 90.5074 6.26402C91.6594 8.23202 92.2354 10.452 92.2354 12.924C92.2354 15.396 91.6594 17.628 90.5074 19.62C89.3554 21.588 87.7954 23.124 85.8274 24.228C83.8594 25.332 81.6874 25.884 79.3114 25.884ZM79.3114 20.268C81.3274 20.268 82.9354 19.596 84.1354 18.252C85.3594 16.908 85.9714 15.132 85.9714 12.924C85.9714 10.692 85.3594 8.91602 84.1354 7.59602C82.9354 6.25202 81.3274 5.58002 79.3114 5.58002C77.2714 5.58002 75.6394 6.24002 74.4154 7.56002C73.2154 8.88002 72.6154 10.668 72.6154 12.924C72.6154 15.156 73.2154 16.944 74.4154 18.288C75.6394 19.608 77.2714 20.268 79.3114 20.268ZM118.268 25.632H112.112L101.816 10.044V25.632H95.6602V0.360018H101.816L112.112 16.02V0.360018H118.268V25.632ZM132.198 0.360018C134.862 0.360018 137.19 0.888018 139.182 1.94402C141.174 3.00002 142.71 4.48802 143.79 6.40802C144.894 8.30402 145.446 10.5 145.446 12.996C145.446 15.468 144.894 17.664 143.79 19.584C142.71 21.504 141.162 22.992 139.146 24.048C137.154 25.104 134.838 25.632 132.198 25.632H122.73V0.360018H132.198ZM131.802 20.304C134.13 20.304 135.942 19.668 137.238 18.396C138.534 17.124 139.182 15.324 139.182 12.996C139.182 10.668 138.534 8.85602 137.238 7.56002C135.942 6.26402 134.13 5.61602 131.802 5.61602H128.886V20.304H131.802Z" fill="#F9BF4B"/>
</svg>
