<svg width="211" height="73" viewBox="0 0 211 73" fill="none" xmlns="http://www.w3.org/2000/svg">
<path d="M24.35 37C26.3833 37.4333 28.0167 38.45 29.25 40.05C30.4833 41.6167 31.1 43.4167 31.1 45.45C31.1 48.3833 30.0667 50.7167 28 52.45C25.9667 54.15 23.1167 55 19.45 55H3.1V19.9H18.9C22.4667 19.9 25.25 20.7167 27.25 22.35C29.2833 23.9833 30.3 26.2 30.3 29C30.3 31.0667 29.75 32.7833 28.65 34.15C27.5833 35.5167 26.15 36.4667 24.35 37ZM11.65 34.1H17.25C18.65 34.1 19.7167 33.8 20.45 33.2C21.2167 32.5667 21.6 31.65 21.6 30.45C21.6 29.25 21.2167 28.3333 20.45 27.7C19.7167 27.0667 18.65 26.75 17.25 26.75H11.65V34.1ZM17.95 48.1C19.3833 48.1 20.4833 47.7833 21.25 47.15C22.05 46.4833 22.45 45.5333 22.45 44.3C22.45 43.0667 22.0333 42.1 21.2 41.4C20.4 40.7 19.2833 40.35 17.85 40.35H11.65V48.1H17.95ZM44.609 26.75V33.85H56.059V40.45H44.609V48.15H57.559V55H36.059V19.9H57.559V26.75H44.609ZM93.2098 19.9L81.0598 43.4V55H72.5098V43.4L60.3598 19.9H70.0598L76.8598 34.6L83.6098 19.9H93.2098ZM113.255 55.35C109.955 55.35 106.921 54.5833 104.155 53.05C101.421 51.5167 99.238 49.3833 97.6047 46.65C96.0047 43.8833 95.2047 40.7833 95.2047 37.35C95.2047 33.9167 96.0047 30.8333 97.6047 28.1C99.238 25.3667 101.421 23.2333 104.155 21.7C106.921 20.1667 109.955 19.4 113.255 19.4C116.555 19.4 119.571 20.1667 122.305 21.7C125.071 23.2333 127.238 25.3667 128.805 28.1C130.405 30.8333 131.205 33.9167 131.205 37.35C131.205 40.7833 130.405 43.8833 128.805 46.65C127.205 49.3833 125.038 51.5167 122.305 53.05C119.571 54.5833 116.555 55.35 113.255 55.35ZM113.255 47.55C116.055 47.55 118.288 46.6167 119.955 44.75C121.655 42.8833 122.505 40.4167 122.505 37.35C122.505 34.25 121.655 31.7833 119.955 29.95C118.288 28.0833 116.055 27.15 113.255 27.15C110.421 27.15 108.155 28.0667 106.455 29.9C104.788 31.7333 103.955 34.2167 103.955 37.35C103.955 40.45 104.788 42.9333 106.455 44.8C108.155 46.6333 110.421 47.55 113.255 47.55ZM167.361 55H158.811L144.511 33.35V55H135.961V19.9H144.511L158.811 41.65V19.9H167.361V55ZM186.709 19.9C190.409 19.9 193.642 20.6333 196.409 22.1C199.176 23.5667 201.309 25.6333 202.809 28.3C204.342 30.9333 205.109 33.9833 205.109 37.45C205.109 40.8833 204.342 43.9333 202.809 46.6C201.309 49.2667 199.159 51.3333 196.359 52.8C193.592 54.2667 190.376 55 186.709 55H173.559V19.9H186.709ZM186.159 47.6C189.392 47.6 191.909 46.7167 193.709 44.95C195.509 43.1833 196.409 40.6833 196.409 37.45C196.409 34.2167 195.509 31.7 193.709 29.9C191.909 28.1 189.392 27.2 186.159 27.2H182.109V47.6H186.159Z" fill="#F9BF4B"/>
<path d="M45.6695 69L44.2415 62.112H45.176L45.8795 65.8605C45.9495 66.2315 46.016 66.6025 46.079 66.9735C46.142 67.3445 46.2015 67.726 46.2575 68.118H46.2995C46.3695 67.726 46.443 67.3445 46.52 66.9735C46.604 66.6025 46.688 66.2315 46.772 65.8605L47.7065 62.112H48.5885L49.4915 65.8605C49.5755 66.2245 49.6595 66.5955 49.7435 66.9735C49.8275 67.3445 49.908 67.726 49.985 68.118H50.027C50.083 67.726 50.1425 67.3445 50.2055 66.9735C50.2685 66.6025 50.3315 66.2315 50.3945 65.8605L51.119 62.112H52.0115L50.573 69H49.4495L48.4625 64.863C48.4065 64.604 48.3505 64.345 48.2945 64.086C48.2455 63.82 48.1965 63.54 48.1475 63.246H48.1055C48.0635 63.54 48.0145 63.82 47.9585 64.086C47.9095 64.345 47.857 64.604 47.801 64.863L46.793 69H45.6695ZM53.1994 69V62.112H57.1684V62.847H54.0709V65.01H56.6854V65.7555H54.0709V68.2545H57.2734V69H53.1994ZM59.9251 69L62.2561 62.112H63.2431L65.5741 69H64.6501L63.4426 65.1465C63.3166 64.7615 63.1976 64.38 63.0856 64.002C62.9736 63.617 62.8616 63.225 62.7496 62.826H62.7076C62.6026 63.225 62.4941 63.617 62.3821 64.002C62.2701 64.38 62.1511 64.7615 62.0251 65.1465L60.8071 69H59.9251ZM61.1431 66.9V66.207H64.3246V66.9H61.1431ZM66.5397 69V62.112H68.6922C69.1612 62.112 69.5777 62.175 69.9417 62.301C70.3057 62.42 70.5892 62.623 70.7922 62.91C71.0022 63.19 71.1072 63.568 71.1072 64.044C71.1072 64.506 71.0022 64.8875 70.7922 65.1885C70.5892 65.4895 70.3057 65.717 69.9417 65.871C69.5777 66.018 69.1612 66.0915 68.6922 66.0915H67.4112V69H66.5397ZM67.4112 65.3775H68.5662C69.1052 65.3775 69.5182 65.269 69.8052 65.052C70.0922 64.828 70.2357 64.492 70.2357 64.044C70.2357 63.596 70.0922 63.281 69.8052 63.099C69.5182 62.91 69.1052 62.8155 68.5662 62.8155H67.4112V65.3775ZM70.3197 69L68.5242 65.85L69.2067 65.388L71.3067 69H70.3197ZM72.5178 69V62.112H76.4868V62.847H73.3893V65.01H76.0038V65.7555H73.3893V68.2545H76.5918V69H72.5178ZM80.1569 69V62.112H82.2044C82.6664 62.112 83.0759 62.168 83.4329 62.28C83.7899 62.392 84.0664 62.574 84.2624 62.826C84.4654 63.071 84.5669 63.393 84.5669 63.792C84.5669 64.149 84.4794 64.464 84.3044 64.737C84.1364 65.003 83.8879 65.1885 83.5589 65.2935V65.3355C83.9929 65.4125 84.3359 65.5875 84.5879 65.8605C84.8399 66.1265 84.9659 66.4905 84.9659 66.9525C84.9659 67.4145 84.8539 67.796 84.6299 68.097C84.4129 68.398 84.1084 68.6255 83.7164 68.7795C83.3244 68.9265 82.8694 69 82.3514 69H80.1569ZM81.0284 65.0415H82.0469C82.6349 65.0415 83.0584 64.94 83.3174 64.737C83.5764 64.534 83.7059 64.2575 83.7059 63.9075C83.7059 63.5015 83.5694 63.218 83.2964 63.057C83.0234 62.889 82.6209 62.805 82.0889 62.805H81.0284V65.0415ZM81.0284 68.307H82.2254C82.8204 68.307 83.2824 68.1985 83.6114 67.9815C83.9404 67.7575 84.1049 67.4145 84.1049 66.9525C84.1049 66.5255 83.9439 66.214 83.6219 66.018C83.2999 65.815 82.8344 65.7135 82.2254 65.7135H81.0284V68.307ZM86.3298 69V62.112H90.2988V62.847H87.2013V65.01H89.8158V65.7555H87.2013V68.2545H90.4038V69H86.3298ZM92.9799 69V66.333L90.9114 62.112H91.8459L92.7384 64.0545C92.8434 64.3065 92.9484 64.555 93.0534 64.8C93.1654 65.045 93.2809 65.297 93.3999 65.556H93.4419C93.5679 65.297 93.6869 65.045 93.7989 64.8C93.9179 64.555 94.0299 64.3065 94.1349 64.0545L95.0169 62.112H95.9304L93.8514 66.333V69H92.9799ZM99.258 69.126C98.684 69.126 98.173 68.979 97.725 68.685C97.284 68.391 96.9375 67.9745 96.6855 67.4355C96.4405 66.8965 96.318 66.2595 96.318 65.5245C96.318 64.7895 96.4405 64.1595 96.6855 63.6345C96.9375 63.1025 97.284 62.6965 97.725 62.4165C98.173 62.1295 98.684 61.986 99.258 61.986C99.839 61.986 100.35 62.1295 100.791 62.4165C101.232 62.6965 101.578 63.1025 101.83 63.6345C102.082 64.1595 102.208 64.7895 102.208 65.5245C102.208 66.2595 102.082 66.8965 101.83 67.4355C101.578 67.9745 101.232 68.391 100.791 68.685C100.35 68.979 99.839 69.126 99.258 69.126ZM99.258 68.349C99.671 68.349 100.028 68.2335 100.329 68.0025C100.637 67.7715 100.875 67.446 101.043 67.026C101.211 66.599 101.295 66.0985 101.295 65.5245C101.295 64.9575 101.211 64.4675 101.043 64.0545C100.875 63.6415 100.637 63.323 100.329 63.099C100.028 62.868 99.671 62.7525 99.258 62.7525C98.852 62.7525 98.495 62.868 98.187 63.099C97.879 63.323 97.641 63.6415 97.473 64.0545C97.305 64.4675 97.221 64.9575 97.221 65.5245C97.221 66.0985 97.305 66.599 97.473 67.026C97.641 67.446 97.879 67.7715 98.187 68.0025C98.495 68.2335 98.852 68.349 99.258 68.349ZM103.69 69V62.112H104.645L107.092 66.396C107.225 66.627 107.351 66.8685 107.47 67.1205C107.589 67.3655 107.708 67.6175 107.827 67.8765H107.869C107.848 67.5195 107.823 67.1555 107.795 66.7845C107.767 66.4065 107.753 66.0425 107.753 65.6925V62.112H108.593V69H107.638L105.191 64.716C105.065 64.485 104.936 64.2435 104.803 63.9915C104.677 63.7395 104.558 63.4875 104.446 63.2355H104.404C104.432 63.5785 104.456 63.932 104.477 64.296C104.505 64.66 104.519 65.0275 104.519 65.3985V69H103.69ZM110.488 69V62.112H112.21C112.917 62.112 113.512 62.245 113.995 62.511C114.478 62.777 114.842 63.1655 115.087 63.6765C115.339 64.1805 115.465 64.7965 115.465 65.5245C115.465 66.2525 115.339 66.879 115.087 67.404C114.842 67.922 114.481 68.3175 114.005 68.5905C113.529 68.8635 112.945 69 112.252 69H110.488ZM111.359 68.286H112.147C112.686 68.286 113.134 68.1775 113.491 67.9605C113.848 67.7365 114.114 67.4215 114.289 67.0155C114.464 66.6095 114.551 66.1125 114.551 65.5245C114.551 64.9505 114.464 64.4605 114.289 64.0545C114.114 63.6485 113.848 63.344 113.491 63.141C113.134 62.931 112.686 62.826 112.147 62.826H111.359V68.286ZM120.961 69.126C120.471 69.126 120.023 69.035 119.617 68.853C119.211 68.664 118.854 68.412 118.546 68.097L119.039 67.53C119.284 67.789 119.575 67.992 119.911 68.139C120.254 68.286 120.607 68.3595 120.971 68.3595C121.426 68.3595 121.78 68.258 122.032 68.055C122.284 67.845 122.41 67.572 122.41 67.236C122.41 66.998 122.357 66.809 122.252 66.669C122.154 66.529 122.018 66.41 121.843 66.312C121.675 66.214 121.482 66.116 121.265 66.018L120.278 65.5875C120.054 65.4895 119.834 65.367 119.617 65.22C119.407 65.073 119.232 64.8875 119.092 64.6635C118.952 64.4325 118.882 64.149 118.882 63.813C118.882 63.463 118.973 63.1515 119.155 62.8785C119.344 62.5985 119.599 62.3815 119.921 62.2275C120.25 62.0665 120.625 61.986 121.045 61.986C121.465 61.986 121.85 62.063 122.2 62.217C122.55 62.371 122.844 62.5705 123.082 62.8155L122.609 63.3825C122.392 63.1935 122.154 63.043 121.895 62.931C121.636 62.812 121.353 62.7525 121.045 62.7525C120.66 62.7525 120.348 62.8435 120.11 63.0255C119.879 63.2075 119.764 63.4525 119.764 63.7605C119.764 63.9775 119.82 64.156 119.932 64.296C120.044 64.436 120.187 64.5515 120.362 64.6425C120.544 64.7335 120.726 64.821 120.908 64.905L121.885 65.325C122.158 65.444 122.399 65.5805 122.609 65.7345C122.826 65.8885 122.994 66.081 123.113 66.312C123.239 66.543 123.302 66.8265 123.302 67.1625C123.302 67.5265 123.208 67.859 123.019 68.16C122.837 68.454 122.567 68.6885 122.21 68.8635C121.86 69.0385 121.444 69.126 120.961 69.126ZM125.882 69V62.8575H123.803V62.112H128.843V62.8575H126.764V69H125.882ZM130.083 69V62.112H132.236C132.705 62.112 133.121 62.175 133.485 62.301C133.849 62.42 134.133 62.623 134.336 62.91C134.546 63.19 134.651 63.568 134.651 64.044C134.651 64.506 134.546 64.8875 134.336 65.1885C134.133 65.4895 133.849 65.717 133.485 65.871C133.121 66.018 132.705 66.0915 132.236 66.0915H130.955V69H130.083ZM130.955 65.3775H132.11C132.649 65.3775 133.062 65.269 133.349 65.052C133.636 64.828 133.779 64.492 133.779 64.044C133.779 63.596 133.636 63.281 133.349 63.099C133.062 62.91 132.649 62.8155 132.11 62.8155H130.955V65.3775ZM133.863 69L132.068 65.85L132.75 65.388L134.85 69H133.863ZM136.061 69V62.112H140.03V62.847H136.933V65.01H139.547V65.7555H136.933V68.2545H140.135V69H136.061ZM141.598 69V62.112H142.554L145 66.396C145.133 66.627 145.259 66.8685 145.378 67.1205C145.497 67.3655 145.616 67.6175 145.735 67.8765H145.777C145.756 67.5195 145.732 67.1555 145.704 66.7845C145.676 66.4065 145.662 66.0425 145.662 65.6925V62.112H146.502V69H145.546L143.1 64.716C142.974 64.485 142.844 64.2435 142.711 63.9915C142.585 63.7395 142.466 63.4875 142.354 63.2355H142.312C142.34 63.5785 142.365 63.932 142.386 64.296C142.414 64.66 142.428 65.0275 142.428 65.3985V69H141.598ZM151.106 69.126C150.497 69.126 149.958 68.986 149.489 68.706C149.027 68.419 148.663 68.0095 148.397 67.4775C148.131 66.9455 147.998 66.305 147.998 65.556C147.998 65.003 148.075 64.506 148.229 64.065C148.39 63.624 148.61 63.2495 148.89 62.9415C149.177 62.6265 149.513 62.3885 149.898 62.2275C150.283 62.0665 150.703 61.986 151.158 61.986C151.634 61.986 152.033 62.0735 152.355 62.2485C152.684 62.4235 152.947 62.6195 153.143 62.8365L152.66 63.3825C152.492 63.2005 152.289 63.05 152.051 62.931C151.82 62.812 151.529 62.7525 151.179 62.7525C150.717 62.7525 150.315 62.868 149.972 63.099C149.629 63.323 149.363 63.6415 149.174 64.0545C148.992 64.4675 148.901 64.961 148.901 65.535C148.901 66.116 148.988 66.6165 149.163 67.0365C149.345 67.4565 149.604 67.782 149.94 68.013C150.283 68.244 150.7 68.3595 151.19 68.3595C151.435 68.3595 151.669 68.3245 151.893 68.2545C152.117 68.1775 152.296 68.076 152.429 67.95V66.1545H150.969V65.43H153.227V68.328C153.01 68.559 152.716 68.7515 152.345 68.9055C151.981 69.0525 151.568 69.126 151.106 69.126ZM156.1 69V62.8575H154.021V62.112H159.061V62.8575H156.982V69H156.1ZM160.301 69V62.112H161.173V64.9995H164.386V62.112H165.257V69H164.386V65.7555H161.173V69H160.301Z" fill="#F9BF4B"/>
<line x1="8" y1="65.5" x2="42" y2="65.5" stroke="#F9BF4B"/>
<line x1="168" y1="65.5" x2="201" y2="65.5" stroke="#F9BF4B"/>
</svg>
